<?xml version="1.0" encoding="UTF-8" standalone="no"?>
<svg width="51px" height="216px" viewBox="0 0 51 216" version="1.1" xmlns="http://www.w3.org/2000/svg" xmlns:xlink="http://www.w3.org/1999/xlink" xmlns:sketch="http://www.bohemiancoding.com/sketch/ns">
    <!-- Generator: Sketch 3.3.3 (12081) - http://www.bohemiancoding.com/sketch -->
    <title>payment-methods</title>
    <desc>Created with Sketch.</desc>
    <defs></defs>
    <g id="Page-1" stroke="none" stroke-width="1" fill="none" fill-rule="evenodd" sketch:type="MSPage">
        <g id="payment-methods" sketch:type="MSLayerGroup">
            <g id="Welcome" sketch:type="MSShapeGroup">
                <g id="Mobile-Portrait">
                    <g id="american-express">
                        <g id="card" transform="translate(0.282486, 0.000000)" fill="#2E77BC">
                            <rect id="Rectangle-path" x="0.0193197364" y="0.14573332" width="49.1525424" height="30.5084746" rx="5"></rect>
                        </g>
                        <g id="logo" transform="translate(0.011618, 5.903172)" fill="#FFFFFF">
                            <path d="M4.8135444,4.60738272 L3.87248895,2.30641111 L2.93646589,4.60738272 L4.8135444,4.60738272 L4.8135444,4.60738272 Z M25.5488673,3.69106813 C25.3598927,3.80615153 25.1363855,3.80998184 24.8686281,3.80998184 L23.1980508,3.80998184 L23.1980508,2.52787266 L24.8913606,2.52787266 C25.1308325,2.52787266 25.3810634,2.53884128 25.5434879,2.63198745 C25.7218771,2.71625426 25.8322425,2.89506009 25.8322425,3.14228919 C25.8322425,3.39456732 25.727083,3.59774785 25.5488673,3.69106813 L25.5488673,3.69106813 L25.5488673,3.69106813 Z M37.4664157,4.60738272 L36.5147749,2.30641111 L35.5685135,4.60738272 L37.4664157,4.60738272 L37.4664157,4.60738272 Z M15.2512254,7.09812878 L13.8414643,7.09812878 L13.8362584,2.57731848 L11.8420468,7.09812878 L10.6346222,7.09812878 L8.6355518,2.57331406 L8.6355518,7.09812878 L5.83858856,7.09812878 L5.31018845,5.81062234 L2.44693658,5.81062234 L1.91315703,7.09812878 L0.419407206,7.09812878 L2.88215087,1.32585178 L4.92512445,1.32585178 L7.26414093,6.79100757 L7.26414093,1.32585178 L9.5084098,1.32585178 L11.3080937,5.24164722 L12.9614915,1.32585178 L15.2510518,1.32585178 L15.2510518,7.09812878 L15.2512254,7.09812878 L15.2512254,7.09812878 Z M20.8699667,7.09812878 L16.2759225,7.09812878 L16.2759225,1.32585178 L20.8699667,1.32585178 L20.8699667,2.52787266 L17.6513246,2.52787266 L17.6513246,3.56832411 L20.7927457,3.56832411 L20.7927457,4.75154166 L17.6513246,4.75154166 L17.6513246,5.90429083 L20.8699667,5.90429083 L20.8699667,7.09812878 L20.8699667,7.09812878 Z M27.3469895,2.88043528 C27.3469895,3.80092838 26.7349477,4.27623502 26.3779956,4.41900111 C26.6788974,4.53391041 26.9360695,4.73691684 27.0584084,4.90510226 C27.2524154,5.1922014 27.2859068,5.44865805 27.2859068,5.96418294 L27.2859068,7.09812878 L25.8988782,7.09812878 L25.8936722,6.37019579 C25.8936722,6.02285633 25.9268166,5.5233491 25.6765857,5.24565163 C25.475811,5.04264521 25.1693563,4.99859664 24.6744475,4.99859664 L23.1982243,4.99859664 L23.1982243,7.09812878 L21.8229958,7.09812878 L21.8229958,1.32585178 L24.9861082,1.32585178 C25.6887328,1.32585178 26.2067211,1.34465512 26.6511325,1.60233051 C27.0861733,1.86035411 27.3469895,2.236595 27.3469895,2.88043528 L27.3469895,2.88043528 L27.3469895,2.88043528 Z M28.1447088,1.32585178 L29.5478757,1.32585178 L29.5478757,7.09812878 L28.1447088,7.09812878 L28.1447088,1.32585178 L28.1447088,1.32585178 Z M45.8262435,7.09812878 L43.8776704,7.09812878 L41.2708965,2.76570008 L41.2708965,7.09812878 L38.4704627,7.09812878 L37.9352949,5.81062234 L35.0786372,5.81062234 L34.5594342,7.09812878 L32.9501131,7.09812878 C32.2818474,7.09812878 31.4355396,6.94979132 30.9562486,6.45968576 C30.4729664,5.9695802 30.2213473,5.30589196 30.2213473,4.25603884 C30.2213473,3.39996458 30.3717982,2.61736263 30.9628428,1.99894169 C31.4072542,1.53825987 32.1034582,1.32585178 33.0511078,1.32585178 L34.3826067,1.32585178 L34.3826067,2.56269366 L33.0790462,2.56269366 C32.5773697,2.56269366 32.2939946,2.63755881 32.0210312,2.90480997 C31.7864181,3.14768644 31.6255554,3.60714952 31.6255554,4.21216438 C31.6255554,4.83058532 31.7480679,5.27664232 32.0038517,5.56774587 C32.2155588,5.79617162 32.6001022,5.86546541 32.9620867,5.86546541 L33.5796814,5.86546541 L35.5180162,1.32602588 L37.5785163,1.32602588 L39.9067739,6.78578442 L39.9067739,1.32602588 L42.0004184,1.32602588 L44.4176971,5.34628432 L44.4176971,1.32602588 L45.8262435,1.32602588 L45.8262435,7.09812878 L45.8262435,7.09812878 Z M0.403442408,8.23207461 L2.75304424,8.23207461 L3.2828326,6.94979132 L4.46891299,6.94979132 L4.99731311,8.23207461 L9.62051044,8.23207461 L9.62051044,7.25168938 L10.0331658,8.23607902 L12.4330914,8.23607902 L12.8457468,7.23706456 L12.8457468,8.23207461 L24.3348485,8.23207461 L24.3292956,6.12731932 L24.5517615,6.12731932 C24.7072448,6.13271658 24.7528833,6.14716729 24.7528833,6.4051909 L24.7528833,8.23207461 L30.6950853,8.23207461 L30.6950853,7.74196905 C31.1743763,7.99964444 31.919863,8.23207461 32.9008304,8.23207461 L35.4005361,8.23207461 L35.9355304,6.94979132 L37.1216107,6.94979132 L37.6449785,8.23207461 L42.4621828,8.23207461 L42.4621828,7.01403606 L43.1918782,8.23207461 L47.0522359,8.23207461 L47.0522359,0.181285539 L43.2316167,0.181285539 L43.2316167,1.13207292 L42.6966224,0.181285539 L38.7763968,0.181285539 L38.7763968,1.13207292 L38.2851322,0.181285539 L32.9900251,0.181285539 C32.1034582,0.181285539 31.3244801,0.305422401 30.6950853,0.651369025 L30.6950853,0.181285539 L27.0407083,0.181285539 L27.0407083,0.651369025 C26.6403736,0.294801996 26.0944469,0.181285539 25.4876111,0.181285539 L12.1375691,0.181285539 L11.2416316,2.26062149 L10.3219204,0.181285539 L6.11675782,0.181285539 L6.11675782,1.13207292 L5.65481985,0.181285539 L2.06864028,0.181285539 L0.403268878,4.00898385 L0.403268878,8.23207461 L0.403442408,8.23207461 L0.403442408,8.23207461 Z" id="Fill-7"></path>
                            <path d="M48.9334673,12.3418681 L46.4269939,12.3418681 C46.1769366,12.3418681 46.0106945,12.3510957 45.8704819,12.4459829 C45.7254105,12.5396514 45.6695337,12.678239 45.6695337,12.8613975 C45.6695337,13.0793769 45.7920461,13.2273662 45.9702619,13.2916109 C46.1153333,13.3422754 46.2713371,13.3569003 46.5002238,13.3569003 L47.2455369,13.3769223 C47.9976177,13.3955516 48.4998147,13.5252598 48.8057489,13.8417827 C48.8616257,13.8856571 48.8949435,13.9352771 48.9334673,13.9845488 L48.9334673,12.3418681 L48.9334673,12.3418681 Z M48.9334673,16.1483257 C48.5994212,16.6384312 47.9485086,16.8867049 47.0673212,16.8867049 L44.4114381,16.8867049 L44.4114381,15.6488184 L47.0563887,15.6488184 C47.3187667,15.6488184 47.5025354,15.6141715 47.6129008,15.5057041 C47.7086896,15.4165624 47.7756723,15.28668 47.7756723,15.129115 C47.7756723,14.9609296 47.7086896,14.8275652 47.6075213,14.7473028 C47.5079149,14.6592056 47.3626699,14.6191615 47.1230244,14.6191615 C45.8319581,14.575287 44.2210753,14.6592056 44.2210753,12.8321478 C44.2210753,11.9947028 44.7508636,11.1132092 46.1941161,11.1132092 L48.9332937,11.1132092 L48.9332937,9.96446444 L46.3882966,9.96446444 C45.620251,9.96446444 45.0621772,10.1491898 44.667222,10.4359408 L44.667222,9.96446444 L40.9026531,9.96446444 C40.3008497,9.96446444 39.5940603,10.1141947 39.2600142,10.4359408 L39.2600142,9.96446444 L32.5376194,9.96446444 L32.5376194,10.4359408 C32.0026252,10.0489054 31.0999199,9.96446444 30.683447,9.96446444 L26.2493978,9.96446444 L26.2493978,10.4359408 C25.8261571,10.0247048 24.8849281,9.96446444 24.311063,9.96446444 L19.3486137,9.96446444 L18.2130307,11.197476 L17.1496363,9.96446444 L9.73676399,9.96446444 L9.73676399,18.0206508 L17.0101178,18.0206508 L18.1800599,16.7683135 L19.2824986,18.0206508 L23.7656569,18.0246552 L23.7656569,16.1296964 L24.2065977,16.1296964 C24.8012864,16.1387499 25.5028699,16.1147234 26.1220264,15.8464276 L26.1220264,18.0206508 L29.8197861,18.0206508 L29.8197861,15.9207704 L29.9983489,15.9207704 C30.2258472,15.9207704 30.2484062,15.9303462 30.2484062,16.1585978 L30.2484062,18.0203026 L41.4818977,18.0203026 C42.1952812,18.0203026 42.9407679,17.8371441 43.3534232,17.5047777 L43.3534232,18.0203026 L46.9168703,18.0203026 C47.6581922,18.0203026 48.3825082,17.9160137 48.9334673,17.6489366 L48.9334673,16.1483257 L48.9334673,16.1483257 Z M43.4478237,13.8417827 C43.7155812,14.1196543 43.8592644,14.4706499 43.8592644,15.0648703 C43.8592644,16.3069353 43.0858393,16.8867049 41.6988107,16.8867049 L39.0205422,16.8867049 L39.0205422,15.6488184 L41.6882253,15.6488184 C41.9490415,15.6488184 42.1338514,15.6141715 42.2497698,15.5057041 C42.3443438,15.4165624 42.4123678,15.28668 42.4123678,15.129115 C42.4123678,14.9609296 42.3389644,14.8273911 42.2445638,14.7473028 C42.1392309,14.6592056 41.9941595,14.6191615 41.754861,14.6191615 C40.4686536,14.575287 38.8581178,14.6592056 38.8581178,12.8321478 C38.8581178,11.9947028 39.3827002,11.1132092 40.8242174,11.1132092 L43.5812686,11.1132092 L43.5812686,12.3422164 L41.058657,12.3422164 C40.8084261,12.3422164 40.6460017,12.3514439 40.5075244,12.4463311 C40.3570735,12.5398255 40.3011967,12.6785872 40.3011967,12.8617457 C40.3011967,13.0797251 40.4290886,13.2277144 40.6020985,13.2919591 C40.7471699,13.3426237 40.9028267,13.3572485 41.1372663,13.3572485 L41.877547,13.3772706 C42.6239013,13.3955516 43.1363367,13.5252598 43.4478237,13.8417827 L43.4478237,13.8417827 L43.4478237,13.8417827 Z M31.0391843,13.4850415 C30.8550685,13.5945536 30.6277437,13.6041294 30.3599863,13.6041294 L28.6895825,13.6041294 L28.6895825,12.3073954 L30.3827187,12.3073954 C30.6277437,12.3073954 30.8727686,12.3126185 31.0391843,12.4115101 C31.2174,12.5050045 31.3237742,12.6839845 31.3237742,12.9308653 C31.3237742,13.1780944 31.2174,13.3769223 31.0391843,13.4850415 L31.0391843,13.4850415 L31.0391843,13.4850415 Z M31.8697009,14.2035729 C32.175635,14.3170893 32.4260394,14.5200957 32.5431724,14.6882812 C32.7375265,14.9701572 32.7656384,15.2332298 32.7710179,15.7423128 L32.7710179,16.8867049 L31.3905834,16.8867049 L31.3905834,16.1643433 C31.3905834,15.817178 31.4237277,15.3026977 31.1682909,15.0344019 C30.9673427,14.8273911 30.6610615,14.7779452 30.1592116,14.7779452 L28.689756,14.7779452 L28.689756,16.8867049 L27.3079333,16.8867049 L27.3079333,11.1130351 L30.4828458,11.1130351 C31.1788763,11.1130351 31.6859322,11.1438517 32.1374583,11.3856835 C32.5714579,11.6485821 32.8444212,12.0089794 32.8444212,12.6676186 C32.8442477,13.5891563 32.2316853,14.0594139 31.8697009,14.2035729 L31.8697009,14.2035729 L31.8697009,14.2035729 Z M33.6069139,11.1130351 L38.1966198,11.1130351 L38.1966198,12.3072213 L34.9762424,12.3072213 L34.9762424,13.3569003 L38.117837,13.3569003 L38.117837,14.5347206 L34.9762424,14.5347206 L34.9762424,15.6834653 L38.1966198,15.6886885 L38.1966198,16.8867049 L33.6069139,16.8867049 L33.6069139,11.1130351 L33.6069139,11.1130351 Z M24.3287631,13.7775379 L22.5514646,13.7775379 L22.5514646,12.3073954 L24.3447279,12.3073954 C24.8411984,12.3073954 25.1856563,12.5104018 25.1856563,13.0151322 C25.1856563,13.5146394 24.8571632,13.7775379 24.3287631,13.7775379 L24.3287631,13.7775379 L24.3287631,13.7775379 Z M21.1819626,16.3616043 L19.070618,14.009794 L21.1819626,11.7328489 L21.1819626,16.3616043 L21.1819626,16.3616043 Z M15.7294634,15.6834653 L12.3483967,15.6834653 L12.3483967,14.5347206 L15.3673054,14.5347206 L15.3673054,13.3569003 L12.3483967,13.3569003 L12.3483967,12.3072213 L15.796099,12.3072213 L17.3002607,13.9897719 L15.7294634,15.6834653 L15.7294634,15.6834653 Z M26.6622266,13.0151322 C26.6622266,14.6191615 25.4695521,14.9501351 24.2673334,14.9501351 L22.5514646,14.9501351 L22.5514646,16.8867049 L19.8785756,16.8867049 L18.1852658,14.9755544 L16.4256674,16.8867049 L10.9783741,16.8867049 L10.9783741,11.1130351 L16.5093091,11.1130351 L18.2012306,13.0055564 L19.9504172,11.1130351 L24.3447279,11.1130351 C25.4360607,11.1130351 26.6622266,11.4161519 26.6622266,13.0151322 L26.6622266,13.0151322 L26.6622266,13.0151322 Z" id="Fill-6"></path>
                        </g>
                    </g>
                    <g id="Bolleto" transform="translate(0.000000, 62.000000)">
                        <g id="card" fill="#F9F9F9">
                            <rect id="Rectangle-path" x="0.0195405334" y="0.147398844" width="49.7142857" height="30.8571429" rx="5"></rect>
                        </g>
                        <g id="Logo" transform="translate(3.142857, 4.571429)" fill="#1A1918">
                            <path d="M2.88564858,0 L4.94682614,0 L4.94682614,8.36092556 L2.88564858,8.36092556 L2.88564858,0 L2.88564858,0 Z" id="Fill-1"></path>
                            <path d="M5.77129716,0 L6.38965043,0 L6.38965043,8.36092556 L5.77129716,8.36092556 L5.77129716,0 L5.77129716,0 Z" id="Fill-2"></path>
                            <path d="M6.80188594,0 L7.83247472,0 L7.83247472,8.36092556 L6.80188594,8.36092556 L6.80188594,0 L6.80188594,0 Z" id="Fill-3"></path>
                            <path d="M9.27529901,0 L9.89365227,0 L9.89365227,8.36092556 L9.27529901,8.36092556 L9.27529901,0 L9.27529901,0 Z" id="Fill-4"></path>
                            <path d="M10.09977,0 L10.7181233,0 L10.7181233,8.36092556 L10.09977,8.36092556 L10.09977,0 L10.09977,0 Z" id="Fill-5"></path>
                            <path d="M1.44282429,0 L2.06117756,0 L2.06117756,19.1689513 L1.44282429,19.1689513 L1.44282429,0 L1.44282429,0 Z" id="Fill-6"></path>
                            <path d="M0,0 L1.03058878,0 L1.03058878,19.1689513 L0,19.1689513 L0,0 L0,0 Z" id="Fill-7"></path>
                            <path d="M14.0160074,0 L16.0771849,0 L16.0771849,8.36092556 L14.0160074,8.36092556 L14.0160074,0 L14.0160074,0 Z" id="Fill-8"></path>
                            <path d="M16.6955382,0 L17.3138915,0 L17.3138915,8.36092556 L16.6955382,8.36092556 L16.6955382,0 L16.6955382,0 Z" id="Fill-9"></path>
                            <path d="M17.9322447,0 L18.9628335,0 L18.9628335,8.36092556 L17.9322447,8.36092556 L17.9322447,0 L17.9322447,0 Z" id="Fill-10"></path>
                            <path d="M20.1995401,0 L20.8178933,0 L20.8178933,8.36092556 L20.1995401,8.36092556 L20.1995401,0 L20.1995401,0 Z" id="Fill-11"></path>
                            <path d="M21.2301288,0 L21.8484821,0 L21.8484821,8.36092556 L21.2301288,8.36092556 L21.2301288,0 L21.2301288,0 Z" id="Fill-12"></path>
                            <path d="M12.3670653,0 L12.9854186,0 L12.9854186,8.36092556 L12.3670653,8.36092556 L12.3670653,0 L12.3670653,0 Z" id="Fill-13"></path>
                            <path d="M11.1303588,0 L12.1609476,0 L12.1609476,8.36092556 L11.1303588,8.36092556 L11.1303588,0 L11.1303588,0 Z" id="Fill-14"></path>
                            <path d="M22.2607176,0 L23.2913064,0 L23.2913064,8.36092556 L22.2607176,8.36092556 L22.2607176,0 L22.2607176,0 Z" id="Fill-15"></path>
                            <path d="M24.7341307,0 L25.352484,0 L25.352484,8.36092556 L24.7341307,8.36092556 L24.7341307,0 L24.7341307,0 Z" id="Fill-16"></path>
                            <path d="M25.5586017,0 L26.176955,0 L26.176955,8.36092556 L25.5586017,8.36092556 L25.5586017,0 L25.5586017,0 Z" id="Fill-17"></path>
                            <path d="M27.825897,0 L28.4442503,0 L28.4442503,8.36092556 L27.825897,8.36092556 L27.825897,0 L27.825897,0 Z" id="Fill-18"></path>
                            <path d="M26.5891905,0 L27.6197793,0 L27.6197793,8.36092556 L26.5891905,8.36092556 L26.5891905,0 L26.5891905,0 Z" id="Fill-19"></path>
                            <path d="M29.4748391,0 L30.0931923,0 L30.0931923,8.36092556 L29.4748391,8.36092556 L29.4748391,0 L29.4748391,0 Z" id="Fill-20"></path>
                            <path d="M30.2993101,0 L30.9176634,0 L30.9176634,8.36092556 L30.2993101,8.36092556 L30.2993101,0 L30.2993101,0 Z" id="Fill-21"></path>
                            <path d="M32.5666054,0 L33.1849587,0 L33.1849587,8.36092556 L32.5666054,8.36092556 L32.5666054,0 L32.5666054,0 Z" id="Fill-22"></path>
                            <path d="M31.1237811,0 L32.1543699,0 L32.1543699,8.36092556 L31.1237811,8.36092556 L31.1237811,0 L31.1237811,0 Z" id="Fill-23"></path>
                            <path d="M33.8033119,0 L35.8644895,0 L35.8644895,8.36092556 L33.8033119,8.36092556 L33.8033119,0 L33.8033119,0 Z" id="Fill-24"></path>
                            <path d="M36.4828428,0 L37.101196,0 L37.101196,8.36092556 L36.4828428,8.36092556 L36.4828428,0 L36.4828428,0 Z" id="Fill-25"></path>
                            <path d="M37.7195493,0 L38.7501381,0 L38.7501381,8.36092556 L37.7195493,8.36092556 L37.7195493,0 L37.7195493,0 Z" id="Fill-26"></path>
                            <path d="M39.9868446,0 L40.6051979,0 L40.6051979,8.36092556 L39.9868446,8.36092556 L39.9868446,0 L39.9868446,0 Z" id="Fill-27"></path>
                            <path d="M41.0174334,0 L41.6357867,0 L41.6357867,19.1689513 L41.0174334,19.1689513 L41.0174334,0 L41.0174334,0 Z" id="Fill-28"></path>
                            <path d="M42.2541399,0 L43.2847287,0 L43.2847287,19.1689513 L42.2541399,19.1689513 L42.2541399,0 L42.2541399,0 Z" id="Fill-29"></path>
                            <path d="M3.09176634,18.9650263 L3.09176634,9.17662561 L6.77680215,9.17662561 C7.52665526,9.17662561 8.12790594,9.2743581 8.58283456,9.47247472 C9.03548283,9.67097015 9.38969626,9.97628946 9.6458549,10.3884326 C9.90429388,10.7986818 10.0319931,11.2293866 10.0319931,11.680547 C10.0319931,12.0976147 9.91797594,12.4915751 9.69146178,12.8605341 C9.46532767,13.229872 9.12251596,13.5283728 8.6626466,13.7564152 C9.25705625,13.9295305 9.71426522,14.2257584 10.0319931,14.6447202 C10.3520014,15.0617879 10.5120055,15.5561324 10.5120055,16.1258597 C10.5120055,16.5861116 10.4139508,17.0122706 10.2193614,17.406231 C10.0251521,17.8005702 9.78533594,18.1036167 9.49953283,18.3180221 C9.21372972,18.5297758 8.85495561,18.6915268 8.42511077,18.8010024 C7.99298559,18.9100991 7.46508597,18.9650263 6.8387515,18.9650263 L3.09176634,18.9650263 L3.09176634,18.9650263 Z M4.39460284,13.2912389 L6.51836317,13.2912389 C7.09453008,13.2912389 7.5084125,13.2526005 7.75773011,13.1775965 C8.0891401,13.0794852 8.33807764,12.9154613 8.50492281,12.6877977 C8.67176797,12.4597552 8.75652076,12.1748915 8.75652076,11.8309338 C8.75652076,11.5051588 8.67860901,11.2180223 8.52088522,10.9717971 C8.36544177,10.7236778 8.14158801,10.5524565 7.85122421,10.4615426 C7.56086042,10.3702499 7.06260526,10.3247929 6.35835904,10.3247929 L4.39460284,10.3247929 L4.39460284,13.2912389 L4.39460284,13.2912389 Z M4.39460284,17.8164802 L6.84065179,17.8164802 C7.26137524,17.8164802 7.55629973,17.8005702 7.72770558,17.7687504 C8.02491041,17.716096 8.27650836,17.627455 8.47755868,17.5020695 C8.67860901,17.376684 8.84355389,17.1944773 8.97353349,16.9554494 C9.10389315,16.7160427 9.16812284,16.4402704 9.16812284,16.1281326 C9.16812284,15.7614464 9.07424868,15.4447628 8.88460008,15.1735362 C8.69723182,14.9023097 8.43651249,14.7132844 8.10282216,14.6038089 C7.77103212,14.4943334 7.29101971,14.439785 6.66696559,14.439785 L4.39460284,14.439785 L4.39460284,17.8164802 L4.39460284,17.8164802 Z" id="Fill-30"></path>
                            <path d="M11.7487121,15.294188 C11.7487121,13.9939976 12.1108401,13.0303227 12.8366002,12.4039152 C13.4405229,11.8839142 14.1801965,11.6237258 15.0511087,11.6237258 C16.0167833,11.6237258 16.8087267,11.9403135 17.4239306,12.5738649 C18.0368783,13.2047843 18.3444803,14.0801005 18.3444803,15.1949254 C18.3444803,16.0995691 18.2087293,16.8094475 17.9372273,17.3275685 C17.6657253,17.8453134 17.2701296,18.248004 16.7496882,18.5352641 C16.231879,18.8225242 15.6640563,18.9650263 15.0511087,18.9650263 C14.0647518,18.9650263 13.2686719,18.6506945 12.6602367,18.0197751 C12.0518015,17.3884796 11.7487121,16.479324 11.7487121,15.294188 L11.7487121,15.294188 L11.7487121,15.294188 Z M12.9700949,15.29682 C12.9700949,16.1965758 13.1671407,16.8707347 13.5604801,17.3162886 C13.9564518,17.7640985 14.4516985,17.9878155 15.0511087,17.9878155 C15.6437501,17.9878155 16.1367405,17.7640985 16.5327122,17.3140326 C16.9260517,16.8639667 17.1230974,16.178528 17.1230974,15.2580925 C17.1230974,14.3899203 16.9237954,13.7315532 16.5281997,13.2859992 C16.132228,12.8381893 15.6392376,12.6144723 15.0511087,12.6144723 C14.4516985,12.6144723 13.9564518,12.8359333 13.5604801,13.2814873 C13.1671407,13.7270413 12.9700949,14.3989442 12.9700949,15.29682 L12.9700949,15.29682 L12.9700949,15.29682 Z" id="Fill-31"></path>
                            <path d="M19.7873045,9.17662561 L21.0240111,9.17662561 L21.0240111,18.9650263 L19.7873045,18.9650263 L19.7873045,9.17662561 L19.7873045,9.17662561 Z" id="Fill-32"></path>
                            <path d="M27.7629901,16.5360992 L29.0208412,16.698905 C28.8250563,17.4155513 28.4587737,17.9742797 27.9239092,18.3702023 C27.3894279,18.765749 26.7074373,18.9650263 25.8752556,18.9650263 C24.8292813,18.9650263 23.9993984,18.6484386 23.3863732,18.0148871 C22.773348,17.3839677 22.4668354,16.4951157 22.4668354,15.3532192 C22.4668354,14.1725952 22.7756468,13.2544157 23.3955686,12.6031925 C24.0154903,11.9493374 24.8200859,11.6237258 25.8085891,11.6237258 C26.7649084,11.6237258 27.5461324,11.9425695 28.1522611,12.5828888 C28.7583898,13.2228321 29.0626036,14.1229639 29.0626036,15.2829082 C29.0626036,15.3532192 29.0603047,15.4596258 29.055707,15.5994959 L23.7112766,15.5994959 C23.7576366,16.3710374 23.9787088,16.9632294 24.3798572,17.3726879 C24.7783236,17.7821463 25.2783223,17.9878155 25.8752556,17.9878155 C26.320082,17.9878155 26.7005408,17.8727611 27.0139499,17.6419002 C27.3296579,17.4110393 27.5783162,17.0425643 27.7629901,16.5360992 L27.7629901,16.5360992 L27.7629901,16.5360992 Z M23.780625,14.6226611 L27.7767832,14.6226611 C27.7235266,14.0300932 27.5691209,13.5867952 27.3181637,13.2905112 C26.9331072,12.8314214 26.4308097,12.6005605 25.8154856,12.6005605 C25.2576327,12.6005605 24.7898178,12.784046 24.4097422,13.1502651 C24.0315822,13.5168601 23.8220042,14.0075335 23.780625,14.6226611 L23.780625,14.6226611 L23.780625,14.6226611 Z" id="Fill-33"></path>
                            <path d="M33.2249136,17.8064468 L33.3910764,18.8591205 C33.0495408,18.9289732 32.7421588,18.9650263 32.4746865,18.9650263 C32.0337602,18.9650263 31.6922246,18.8974268 31.4473934,18.759599 C31.2052485,18.6217713 31.0344807,18.4433838 30.93509,18.2195545 C30.8356993,17.9961008 30.7873471,17.5262846 30.7873471,16.810106 L30.7873471,12.7575188 L29.8870746,12.7575188 L29.8870746,11.8359129 L30.7873471,11.8359129 L30.7873471,10.0967293 L32.0061303,9.38055063 L32.0061303,11.8359129 L33.2249136,11.8359129 L33.2249136,12.7575188 L32.0061303,12.7575188 L32.0061303,16.878081 C32.0061303,17.2190826 32.0268527,17.4380298 32.0706,17.5352979 C32.1120448,17.6321904 32.1815031,17.7091787 32.2782076,17.7677649 C32.3752958,17.8244733 32.5138288,17.8537664 32.6938065,17.8537664 C32.8277345,17.8537664 33.0054098,17.8379932 33.2249136,17.8064468" id="Fill-34"></path>
                            <path d="M33.8033119,15.294188 C33.8033119,13.9939976 34.1650845,13.0303227 34.8912621,12.4039152 C35.4952192,11.8839142 36.234935,11.6237258 37.1058968,11.6237258 C38.0716265,11.6237258 38.863239,11.9403135 39.478478,12.5738649 C40.0914606,13.2047843 40.3990801,14.0801005 40.3990801,15.1949254 C40.3990801,16.0995691 40.2633214,16.8094475 39.99218,17.3275685 C39.7206625,17.8453134 39.3246683,18.248004 38.8045732,18.5352641 C38.2863584,18.8225242 37.7185034,18.9650263 37.1058968,18.9650263 C36.1194837,18.9650263 35.3233584,18.6506945 34.7148885,18.0197751 C34.1064187,17.3884796 33.8033119,16.479324 33.8033119,15.294188 L33.8033119,15.294188 L33.8033119,15.294188 Z M35.0247644,15.29682 C35.0247644,16.1965758 35.2214453,16.8707347 35.6151833,17.3162886 C36.0108015,17.7640985 36.5064525,17.9878155 37.1058968,17.9878155 C37.698196,17.9878155 38.1915906,17.7640985 38.5872088,17.3140326 C38.9809467,16.8639667 39.1776276,16.178528 39.1776276,15.2580925 C39.1776276,14.3899203 38.9786903,13.7315532 38.582696,13.2859992 C38.1867017,12.8381893 37.6936832,12.6144723 37.1058968,12.6144723 C36.5064525,12.6144723 36.0108015,12.8359333 35.6151833,13.2814873 C35.2214453,13.7270413 35.0247644,14.3989442 35.0247644,15.29682 L35.0247644,15.29682 L35.0247644,15.29682 Z" id="Fill-35"></path>
                        </g>
                    </g>
                    <g id="paypal" transform="translate(0.000000, 124.000000)">
                        <g id="card" transform="translate(0.089271, 0.000000)" fill="#2890C3">
                            <rect id="Rectangle-path" x="0.0194295076" y="0.14656135" width="49.4318182" height="30.6818182" rx="5"></rect>
                        </g>
                        <g id="logo" transform="translate(13.002720, 3.507825)" fill="#FFFFFF">
                            <g id="text" transform="translate(0.000000, 16.930290)">
                                <path d="M22.4478863,0.246664081 L21.6994039,5.01252982 C21.6848246,5.10477845 21.7560751,5.18831995 21.8494296,5.18831995 L22.6023798,5.18831995 C22.7270093,5.18831995 22.8332971,5.09748328 22.8525794,4.97417133 L23.5907151,0.29396504 C23.6052944,0.201716404 23.534044,0.11817491 23.4404543,0.11817491 L22.5981471,0.11817491 C22.5231342,0.11817491 22.4594086,0.172535713 22.4478863,0.246664081" id="l"></path>
                                <path d="M20.2014986,3.50760628 C20.1170798,4.00697262 19.7210872,4.34231524 19.2157499,4.34231524 C18.9624934,4.34231524 18.759559,4.26065637 18.6292859,4.1062811 C18.4999534,3.9533178 18.4515126,3.73516861 18.4924286,3.49254528 C18.5709687,2.99741485 18.9735455,2.65148247 19.4711228,2.65148247 C19.719206,2.65148247 19.9204944,2.73384732 20.0533541,2.88963456 C20.1871545,3.04659843 20.2398281,3.26592427 20.2014986,3.50760628 M21.4186348,1.80641907 L20.5452879,1.80641907 C20.4705102,1.80641907 20.4067845,1.86077988 20.395027,1.93490824 L20.3566976,2.17917887 L20.2955586,2.09069548 C20.106498,1.81606753 19.6848741,1.72405422 19.2639557,1.72405422 C18.2991354,1.72405422 17.4749347,2.45592477 17.3145625,3.48219084 C17.2310842,3.9942649 17.3495998,4.48351213 17.6397749,4.82497328 C17.9061998,5.13866571 18.2864373,5.26927283 18.7395713,5.26927283 C19.5174474,5.26927283 19.9487124,4.76943584 19.9487124,4.76943584 L19.9096775,5.01229449 C19.8950982,5.10454312 19.9663486,5.18808462 20.0599383,5.18808462 L20.8462798,5.18808462 C20.9711445,5.18808462 21.0771971,5.09748328 21.0967145,4.97417133 L21.5688957,1.9822092 C21.583475,1.88996057 21.5119894,1.80641907 21.4186348,1.80641907" id="a"></path>
                                <path d="M16.1778475,1.82736328 C16.0781439,2.48251685 15.5782151,2.48251685 15.0945116,2.48251685 L14.8193861,2.48251685 L15.0124443,1.25928112 C15.0239666,1.18538808 15.0876923,1.13102728 15.1624699,1.13102728 L15.2887455,1.13102728 C15.6179554,1.13102728 15.9288237,1.13102728 16.089196,1.31858381 C16.1851372,1.43083534 16.2140606,1.59744767 16.1778475,1.82736328 M15.9673883,0.117939582 L14.1435651,0.117939582 C14.0187005,0.117939582 13.9126479,0.208776249 13.8931304,0.332088201 L13.1557001,5.01229449 C13.1411208,5.10454312 13.2126064,5.18808462 13.3057258,5.18808462 L14.2416227,5.18808462 C14.3288633,5.18808462 14.4031707,5.12454602 14.4168094,5.03841591 L14.6260929,3.71140046 C14.6453752,3.58808851 14.751663,3.49725185 14.8762924,3.49725185 L15.4533505,3.49725185 C16.6547316,3.49725185 17.3481889,2.91552065 17.5292544,1.76217738 C17.6108514,1.25810448 17.5325465,0.861811871 17.2966911,0.58435998 C17.0373206,0.279374694 16.5776025,0.117939582 15.9673883,0.117939582" id="P"></path>
                                <path d="M13.0616401,1.80641907 L12.1838253,1.80641907 C12.0998768,1.80641907 12.0213367,1.84807216 11.9743067,1.91772929 L10.7632843,3.70245799 L10.2501871,1.98738642 C10.2179716,1.88007678 10.1192086,1.80641907 10.0072772,1.80641907 L9.14451196,1.80641907 C9.04034053,1.80641907 8.96697374,1.90902215 9.00060018,2.00762464 L9.96706655,4.84709413 L9.05797677,6.1308092 C8.98672633,6.23152964 9.05868222,6.37084391 9.18213596,6.37084391 L10.0590102,6.37084391 C10.1420181,6.37084391 10.2198528,6.33013214 10.2673531,6.26188698 L13.1865048,2.04527715 C13.2563443,1.94432137 13.1843884,1.80641907 13.0616401,1.80641907" id="y"></path>
                                <path d="M7.19300238,3.50760628 C7.10858354,4.00697262 6.71259099,4.34231524 6.20725371,4.34231524 C5.95399719,4.34231524 5.75106277,4.26065637 5.62078969,4.1062811 C5.49169236,3.9533178 5.44301631,3.73516861 5.48393241,3.49254528 C5.5624725,2.99741485 5.96504924,2.65148247 6.46262657,2.65148247 C6.71070979,2.65148247 6.91199816,2.73384732 7.0448579,2.88963456 C7.17865823,3.04659843 7.23133182,3.26592427 7.19300238,3.50760628 M8.41013861,1.80641907 L7.53679163,1.80641907 C7.46201394,1.80641907 7.3982883,1.86077988 7.3865308,1.93490824 L7.34820135,2.17917887 L7.28729751,2.09069548 C7.09800179,1.81606753 6.6763779,1.72405422 6.25545945,1.72405422 C5.29063913,1.72405422 4.46643849,2.45592477 4.30606622,3.48219084 C4.22258798,3.9942649 4.34110356,4.48351213 4.63127862,4.82497328 C4.89770354,5.13866571 5.27794104,5.26927283 5.73107502,5.26927283 C6.50895112,5.26927283 6.94021616,4.76943584 6.94021616,4.76943584 L6.90118127,5.01229449 C6.88660197,5.10454312 6.95785241,5.18808462 7.05144209,5.18808462 L7.83778359,5.18808462 C7.96264822,5.18808462 8.06870086,5.09748328 8.0882183,4.97417133 L8.56039944,1.9822092 C8.57497874,1.88996057 8.50349315,1.80641907 8.41013861,1.80641907" id="a"></path>
                                <path d="M3.16935127,1.82736328 C3.06964768,2.48251685 2.56971885,2.48251685 2.08601537,2.48251685 L1.8108899,2.48251685 L2.00394803,1.25928112 C2.01547038,1.18538808 2.07919602,1.13102728 2.15397371,1.13102728 L2.28024924,1.13102728 C2.6094592,1.13102728 2.92032745,1.13102728 3.08069973,1.31858381 C3.17664092,1.43083534 3.20556437,1.59744767 3.16935127,1.82736328 M2.95889205,0.117939582 L1.1350689,0.117939582 C1.01020426,0.117939582 0.904151628,0.208776249 0.88463418,0.332088201 L0.14720388,5.01229449 C0.132624582,5.10454312 0.203875022,5.18808462 0.29722956,5.18808462 L1.16822504,5.18808462 C1.29285452,5.18808462 1.39890716,5.09724795 1.41842461,4.97417133 L1.61759663,3.71140046 C1.63687893,3.58808851 1.74316671,3.49725185 1.8677962,3.49725185 L2.44485422,3.49725185 C3.64623541,3.49725185 4.33969266,2.91552065 4.52075814,1.76217738 C4.60235518,1.25810448 4.52405024,0.861811871 4.28819482,0.58435998 C4.0288244,0.279374694 3.56910622,0.117939582 2.95889205,0.117939582" id="P"></path>
                            </g>
                            <g id="icon" transform="translate(6.123305, 0.000000)">
                                <path d="M10.6837038,1.11718722 C10.000437,0.33523813 8.76533225,0 7.18532878,0 L2.5996044,0 C2.27633838,0 2.0016439,0.236060101 1.95103154,0.556134648 L0.0416395846,12.715279 C0.00368031735,12.9550275 0.188578683,13.1722356 0.430620033,13.1722356 L3.26164667,13.1722356 L3.97266864,8.6440619 L3.95062778,8.78586189 C4.00124014,8.46578734 4.2738938,8.22972724 4.59675165,8.22972724 L5.94206073,8.22972724 C8.58492369,8.22972724 10.654316,7.15188338 11.2588071,4.03392288 C11.2767664,3.9417119 11.2922766,3.85195988 11.305746,3.764257 C11.2294193,3.72368417 11.2294193,3.72368417 11.305746,3.764257 C11.4857464,2.6118247 11.3045215,1.82741665 10.6837038,1.11718722" id="P"></path>
                                <path d="M11.6957499,4.12836122 L11.6957499,4.12836122 C11.6818917,4.21611288 11.6668108,4.30508899 11.6488767,4.39692212 C11.045231,7.50169836 8.97873309,8.57553381 6.33956662,8.57553381 L4.99573158,8.57553381 C4.6733253,8.57553381 4.40105299,8.81062663 4.35091901,9.12938964 L3.46766438,14.7365168 C3.43464932,14.9454882 3.59605626,15.1348685 3.80718958,15.1348685 L6.19038748,15.1348685 C6.47244203,15.1348685 6.71251447,14.9291623 6.75653454,14.6503977 L6.77976736,14.5287698 L7.22893515,11.6782693 L7.25787427,11.5207245 C7.30189435,11.2419599 7.54196679,11.0362537 7.82402134,11.0362537 L8.18066546,11.0362537 C10.4892738,11.0362537 12.29695,10.0971068 12.8251909,7.38088677 C13.0456988,6.24582923 12.9315727,5.29811128 12.3483067,4.63242309 C12.1714112,4.43079834 11.9517185,4.26427426 11.6957499,4.12836122" id="shadow"></path>
                                <path d="M10.6622326,3.47437847 C10.5701165,3.44744075 10.4751472,3.42295191 10.3773249,3.40132011 C10.2795025,3.3796883 10.1784193,3.36050538 10.0748906,3.34377135 C9.71213263,3.28499814 9.31595196,3.25724413 8.89042458,3.25724413 L5.30075058,3.25724413 C5.21230284,3.25724413 5.12833863,3.27724334 5.05334146,3.31356845 C4.887451,3.39315716 4.76476542,3.54988571 4.73460352,3.74212307 L3.9715889,8.58642295 L3.94957887,8.7276419 C3.99971284,8.40887889 4.27198515,8.17378606 4.59439143,8.17378606 L5.93822647,8.17378606 C8.57739294,8.17378606 10.6438909,7.10035876 11.2475365,3.99517438 C11.2654706,3.90334124 11.2805516,3.81436514 11.2944097,3.72661348 C11.1415623,3.64580032 10.9760794,3.57600714 10.7979611,3.51682579 C10.7535335,3.50213248 10.7082906,3.48784733 10.6622326,3.47437847" id="fill"></path>
                            </g>
                        </g>
                    </g>
                    <g id="mastercard" transform="translate(0.000000, 31.000000)">
                        <g id="card" fill="#14457C">
                            <rect id="Rectangle-path" x="0.0194295076" y="0.14656135" width="49.4318182" height="30.6818182" rx="5"></rect>
                        </g>
                        <g id="logo" transform="translate(4.918291, 3.522331)">
                            <path d="M23.7499224,11.9292248 C23.7499224,18.5177372 18.4428291,23.8580725 11.895934,23.8580725 C5.34847689,23.8580725 0.0410088726,18.5177372 0.0410088726,11.9292248 C0.0410088726,5.34090089 5.34847689,0 11.895934,0 C18.4428291,0 23.7499224,5.34090089 23.7499224,11.9292248" id="Fill-2" fill="#D82331"></path>
                            <path d="M27.9277434,0 C24.8642078,0 22.0734362,1.16937659 19.9692577,3.08773484 C19.5413781,3.47872098 19.1415992,3.9010011 18.7731057,4.35061631 L21.1678452,4.35061631 C21.494937,4.75140539 21.7965509,5.17274292 22.0715628,5.61406334 L17.868826,5.61406334 C17.617606,6.01956536 17.3888665,6.44090289 17.1859796,6.87751037 L22.7544092,6.87751037 C22.9447445,7.28640572 23.1122245,7.70755473 23.2564746,8.14039185 L16.6839142,8.14039185 C16.5469703,8.55192644 16.4317575,8.97326397 16.3394,9.4030848 L23.6004269,9.4030848 C23.774089,10.2174822 23.8666339,11.0624194 23.8666339,11.9292248 C23.8666339,13.2535631 23.6523194,14.5283212 23.2564746,15.7188118 L16.6839142,15.7188118 C16.827977,16.1514604 16.9956444,16.5729864 17.1856049,16.9824473 L22.7544092,16.9824473 C22.5509603,17.4179237 22.3233449,17.8396383 22.0706261,18.2457059 L17.868826,18.2457059 C18.1430886,18.6857067 18.4452645,19.1076097 18.7731057,19.5078333 L21.1670958,19.5078333 C20.7991643,19.9578255 20.399198,20.3801056 19.9698197,20.7710918 C22.0738109,22.68945 24.8642078,23.8580725 27.9277434,23.8580725 C34.4746385,23.8580725 39.7821065,18.5177372 39.7821065,11.9292248 C39.7821065,5.34146644 34.4746385,0 27.9277434,0" id="Fill-3" fill="#F1AB3D"></path>
                            <path d="M38.0705881,18.4828614 C38.0705881,18.2702132 38.2421895,18.0977193 38.4536939,18.0977193 C38.665573,18.0977193 38.8364251,18.2702132 38.8364251,18.4828614 C38.8364251,18.6956981 38.665573,18.8683805 38.4536939,18.8683805 C38.2421895,18.8683805 38.0705881,18.6956981 38.0705881,18.4828614 L38.0705881,18.4828614 L38.0705881,18.4828614 Z M38.4536939,18.7760067 C38.6138678,18.7760067 38.7446296,18.6446098 38.7446296,18.4828614 C38.7446296,18.3205475 38.6138678,18.1902816 38.4536939,18.1902816 C38.2927707,18.1902816 38.1623836,18.3205475 38.1623836,18.4828614 C38.1623836,18.6446098 38.2927707,18.7760067 38.4536939,18.7760067 L38.4536939,18.7760067 L38.4536939,18.7760067 Z M38.4018014,18.651962 L38.3231195,18.651962 L38.3231195,18.3139493 L38.4656836,18.3139493 C38.4950956,18.3139493 38.5254443,18.3139493 38.5516716,18.3301619 C38.5784609,18.3493907 38.5941973,18.3816273 38.5941973,18.4151835 C38.5941973,18.4534526 38.5722788,18.489271 38.5357479,18.5028443 L38.5979441,18.651962 L38.510832,18.651962 L38.4591267,18.5183028 L38.4018014,18.5183028 L38.4018014,18.651962 L38.4018014,18.651962 Z M38.4018014,18.4600507 L38.4452637,18.4600507 C38.4613748,18.4600507 38.4786099,18.4611818 38.4932222,18.4534526 C38.5059612,18.4449693 38.5128927,18.4298879 38.5128927,18.4144294 C38.5128927,18.4016102 38.5042751,18.3865287 38.4935969,18.3799306 C38.4797339,18.3718243 38.4580027,18.373521 38.4433904,18.373521 L38.4018014,18.373521 L38.4018014,18.4600507 L38.4018014,18.4600507 Z" id="registered" fill="#F1AB3D"></path>
                            <path d="M38.0705881,14.7128802 C38.0705881,14.4992894 38.2425642,14.3273611 38.4529446,14.3273611 C38.6648237,14.3273611 38.8356758,14.4992894 38.8356758,14.7128802 C38.8356758,14.9249629 38.6648237,15.0980223 38.4529446,15.0980223 C38.2425642,15.0980223 38.0705881,14.9249629 38.0705881,14.7128802 L38.0705881,14.7128802 L38.0705881,14.7128802 Z M38.4529446,15.0056486 C38.6142425,15.0056486 38.7446296,14.8742516 38.7446296,14.7128802 C38.7446296,14.5513204 38.6142425,14.4199234 38.4529446,14.4199234 C38.2923961,14.4199234 38.1623836,14.5513204 38.1623836,14.7128802 C38.1623836,14.8742516 38.2923961,15.0056486 38.4529446,15.0056486 L38.4529446,15.0056486 L38.4529446,15.0056486 Z M38.4014267,14.8812267 L38.3231195,14.8812267 L38.3231195,14.5432141 L38.4653089,14.5432141 C38.4950956,14.5432141 38.5250696,14.5443452 38.5511096,14.5605578 C38.5788356,14.578844 38.5938226,14.6112691 38.5938226,14.6448253 C38.5938226,14.6830944 38.5719041,14.7189128 38.5361226,14.7324861 L38.5979441,14.8812267 L38.510832,14.8812267 L38.4591267,14.7475675 L38.4014267,14.7475675 L38.4014267,14.8812267 L38.4014267,14.8812267 Z M38.4014267,14.6896925 L38.4448891,14.6896925 C38.4606254,14.6896925 38.4789845,14.6912007 38.4928475,14.6830944 C38.5055865,14.6749881 38.5121433,14.6587756 38.5121433,14.6440712 C38.5121433,14.631252 38.5046498,14.6169246 38.4935969,14.6090069 C38.4801086,14.6014662 38.4580027,14.6035399 38.4433904,14.6035399 L38.4014267,14.6035399 L38.4014267,14.6896925 L38.4014267,14.6896925 Z" id="registered" fill="#FFFFFF"></path>
                            <path d="M36.8579503,9.23737756 L36.5718854,10.9855041 C36.220627,10.5196764 35.8425793,10.1822293 35.3435113,10.1822293 C34.6940111,10.1822293 34.1031475,10.6776544 33.7161076,11.4072187 C33.1769493,11.2946735 32.6201813,11.1033278 32.6201813,11.1033278 L32.6198066,11.1080408 C32.6625196,10.7002765 32.6808787,10.452187 32.67657,10.3673539 L31.4942809,10.3673539 C31.3337324,11.8907671 31.0471055,13.4332207 30.8236115,14.9571994 L30.7644128,15.2882369 L32.0523603,15.2882369 C32.2260225,14.152605 32.358845,13.2085073 32.45701,12.4608453 C32.8970666,12.0606218 33.1173759,11.7122407 33.5611792,11.7348628 C33.3644745,12.2140753 33.2494491,12.7656788 33.2494491,13.3316095 C33.2494491,14.5613118 33.8674766,15.3732585 34.8034163,15.3732585 C35.275133,15.3732585 35.6368823,15.2094364 35.9900141,14.8301384 L35.9293167,15.2878599 L37.1470126,15.2878599 L38.1271641,9.23737756 L36.8579503,9.23737756 L36.8579503,9.23737756 Z M35.2483437,14.1514739 C34.8103478,14.1514739 34.5887272,13.8245838 34.5887272,13.1813607 C34.5887272,12.2140753 35.0033058,11.5284357 35.5868631,11.5284357 C36.0291678,11.5284357 36.2687728,11.8670139 36.2687728,12.4921393 C36.2687728,13.4677194 35.8472627,14.1514739 35.2483437,14.1514739 L35.2483437,14.1514739 L35.2483437,14.1514739 Z" id="Fill-12" fill="#0B2D5A"></path>
                            <path d="M29.4596048,13.2073762 C29.3252836,13.1915407 29.2657101,13.1872048 29.1731652,13.1872048 C28.4438591,13.1872048 28.0746162,13.4386877 28.0746162,13.9358094 C28.0746162,14.241774 28.2548352,14.4376441 28.5358419,14.4376441 C29.0596385,14.4376441 29.4380609,13.9354324 29.4596048,13.2073762 L29.4596048,13.2073762 L29.4596048,13.2073762 Z M30.3962939,15.3992739 L29.3301543,15.3992739 L29.3543209,14.88971 C29.0289151,15.2921958 28.5950407,15.4846726 28.0058632,15.4846726 C27.3078425,15.4846726 26.8303184,14.9360854 26.8303184,14.1401628 C26.8303184,12.941566 27.661349,12.2436727 29.0894252,12.2436727 C29.2353614,12.2436727 29.4219499,12.2570574 29.6132218,12.2819418 C29.6531248,12.1190623 29.663803,12.0498762 29.663803,11.9616499 C29.663803,11.636268 29.440309,11.5150509 28.8387672,11.5150509 C28.2093121,11.5075102 27.6905737,11.6652997 27.4764465,11.7356169 C27.4901222,11.6541772 27.6549795,10.6292053 27.6549795,10.6292053 C28.2964242,10.4399333 28.7190583,10.368485 29.1950838,10.368485 C30.3001896,10.368485 30.8858077,10.868246 30.8844963,11.8115896 C30.8869317,12.0643921 30.8453427,12.3771433 30.7805238,12.7866042 C30.6688705,13.4986364 30.4292654,15.0278937 30.3962939,15.3992739 L30.3962939,15.3992739 L30.3962939,15.3992739 Z" id="a" fill="#0C2D5A"></path>
                            <path d="M26.064856,10.547577 C26.4222966,10.547577 26.7559452,10.6410819 27.2149229,10.87409 L27.425678,9.56106281 C27.2364668,9.48640972 26.5731035,9.04885965 26.01109,9.04885965 C25.1500854,9.04885965 24.4211539,9.47943456 23.9097216,10.1884504 C23.1626184,9.93960677 22.855197,10.4425726 22.4790226,10.9440302 L22.1446246,11.0224536 C22.1699152,10.8575005 22.1929578,10.6934899 22.1856516,10.5275941 L21.0029879,10.5275941 C20.8420647,12.0510074 20.5559998,13.5934609 20.3319438,15.1174397 L20.2734944,15.4484771 L21.5610673,15.4484771 C21.7757564,14.0432646 21.8932172,13.1438457 21.9649676,12.5345558 L22.4497979,12.2642211 C22.5226723,11.9925668 22.7487891,11.9013241 23.203458,11.9124467 C23.1442592,12.2333042 23.1120371,12.5713168 23.1120371,12.9210175 C23.1120371,14.531149 23.9762265,15.5334987 25.3612151,15.5334987 C25.7179063,15.5334987 26.0245784,15.4863692 26.4991051,15.3562919 L26.7244725,13.9774719 C26.2979042,14.1884234 25.9485192,14.2877724 25.6315436,14.2877724 C24.8833163,14.2877724 24.4307081,13.731833 24.4307081,12.8135623 C24.4307081,11.4809292 25.1036256,10.547577 26.064856,10.547577" id="Fill-11" fill="#0C2D5A"></path>
                            <path d="M19.8308151,15.2855976 C19.3913205,15.4209535 18.9666257,15.4850496 18.5179516,15.4846726 C17.0855665,15.48373 16.3394,14.7306009 16.3394,13.28957 C16.3394,11.6070477 17.2888281,10.368485 18.577525,10.368485 C19.6331737,10.368485 20.3064658,11.0618539 20.3064658,12.1501678 C20.3064658,12.5108025 20.2596314,12.8627655 20.149102,13.3598872 L17.6014949,13.3598872 C17.5149448,14.0738045 17.9692391,14.3716628 18.7131576,14.3716628 C19.1708239,14.3716628 19.5840911,14.2762728 20.0438182,14.0613623 L19.8308151,15.2855976 L19.8308151,15.2855976 Z M19.1118125,12.3675289 C19.118744,12.2645981 19.2472577,11.489224 18.5162655,11.489224 C18.1089931,11.489224 17.8176828,11.8023522 17.6989106,12.3675289 L19.1118125,12.3675289 L19.1118125,12.3675289 Z" id="e" fill="#0C2D5A"></path>
                            <path d="M15.8461231,15.3934299 C15.4941154,15.5050325 15.2194781,15.5534816 14.9217983,15.5534816 C14.2638678,15.5534816 13.9045539,15.1728639 13.9045539,14.4728969 C13.8955617,14.2545932 13.9995342,13.6835725 14.0812135,13.1610008 C14.1553992,12.7008286 14.6392928,9.80293129 14.6392928,9.80293129 L15.9184355,9.80293129 L15.76894,10.547577 L16.425559,10.547577 L16.2507728,11.7299614 L15.5919057,11.7299614 C15.4433468,12.6665183 15.2312804,13.831559 15.228845,13.9861437 C15.228845,14.2406429 15.3637282,14.3507373 15.6698382,14.3507373 C15.8163364,14.3507373 15.9298631,14.3362215 16.0167879,14.3043619 L15.8461231,15.3934299" id="t" fill="#0C2D5A"></path>
                            <path d="M10.8316678,12.0342293 C10.8316678,12.657281 11.131783,13.0855936 11.8120067,13.4085248 C12.3329932,13.6551062 12.4135484,13.7280627 12.4135484,13.9516449 C12.4135484,14.2583636 12.1838722,14.3967357 11.6745007,14.3967357 C11.2904581,14.3967357 10.9333922,14.336787 10.521249,14.2031278 C10.521249,14.2031278 10.352645,15.2872943 10.3445894,15.3385712 C10.6370238,15.4030443 10.8979854,15.4618619 11.6836802,15.4846726 C13.0418795,15.4846726 13.6690866,14.9645516 13.6690866,13.8400423 C13.6690866,13.1636401 13.4064389,12.7669984 12.7618094,12.4691401 C12.2222765,12.2193539 12.1602677,12.1641181 12.1602677,11.9341263 C12.1602677,11.6681275 12.3740201,11.5312635 12.7900975,11.5312635 C13.0424415,11.5312635 13.3877051,11.5595412 13.714797,11.6059166 L13.8980134,10.4648177 C13.5647394,10.4118441 13.0596766,10.368485 12.7651815,10.368485 C11.3254903,10.368485 10.827359,11.1251959 10.8316678,12.0342293" id="s" fill="#0C2D5A"></path>
                            <path d="M9.22805599,13.2073762 C9.09317275,13.1915407 9.03359932,13.1872048 8.94086709,13.1872048 C8.21137359,13.1872048 7.84213073,13.4386877 7.84213073,13.9358094 C7.84213073,14.241774 8.02234972,14.4376441 8.3035438,14.4376441 C8.82790238,14.4376441 9.20576278,13.9354324 9.22805599,13.2073762 L9.22805599,13.2073762 L9.22805599,13.2073762 Z M10.1639958,15.3992739 L9.09785619,15.3992739 L9.12221011,14.88971 C8.79699164,15.2921958 8.36292989,15.4846726 7.77337775,15.4846726 C7.07591901,15.4846726 6.59783287,14.9360854 6.59783287,14.1401628 C6.59783287,12.941566 7.42942549,12.2436727 8.85712709,12.2436727 C9.00325059,12.2436727 9.19021374,12.2570574 9.38167301,12.2819418 C9.42157596,12.1190623 9.43206688,12.0498762 9.43206688,11.9616499 C9.43206688,11.636268 9.2078235,11.5150509 8.60684375,11.5150509 C7.97682663,11.5075102 7.45790084,11.6652997 7.24433572,11.7356169 C7.25782404,11.6541772 7.42286867,10.6292053 7.42286867,10.6292053 C8.06412606,10.4399333 8.48713487,10.368485 8.9631603,10.368485 C10.0682661,10.368485 10.6535095,10.868246 10.6523855,11.8115896 C10.6546336,12.0643921 10.6130446,12.3771433 10.548413,12.7866042 C10.4365723,13.4986364 10.1967799,15.0278937 10.1639958,15.3992739 L10.1639958,15.3992739 L10.1639958,15.3992739 Z" id="a" fill="#0C2D5A"></path>
                            <path d="M5.95095535,15.4761893 L4.66413181,15.4761893 L5.4014935,10.8250754 L3.755356,15.4761893 L2.87824029,15.4761893 L2.76977168,10.8520335 L1.99494242,15.4761893 L0.790360187,15.4761893 L1.79655166,9.42589547 L3.64726207,9.42589547 L3.69877998,13.1713693 L4.94757394,9.42589547 L6.94628123,9.42589547 L5.95095535,15.4761893" id="m" fill="#0C2D5A"></path>
                            <path d="M37.6591942,15.0991534 L36.4420603,15.0991534 L36.5023831,14.6412434 C36.1492513,15.02073 35.7873146,15.184552 35.3157853,15.184552 C34.3804075,15.184552 33.761818,14.373548 33.761818,13.1425261 C33.761818,11.5058136 34.721175,10.1262395 35.8556929,10.1262395 C36.3549482,10.1262395 36.7328086,10.331347 37.0848164,10.7973633 L37.3703193,9.04885965 L38.6395331,9.04885965 L37.6591942,15.0991534 L37.6591942,15.0991534 Z M35.7607126,13.9622019 C36.360381,13.9622019 36.7811418,13.2788245 36.7811418,12.3041869 C36.7811418,11.678873 36.5415367,11.3393522 36.0990448,11.3393522 C35.5154874,11.3393522 35.1009088,12.0249919 35.1009088,12.9926543 C35.1009088,13.63682 35.3230915,13.9622019 35.7607126,13.9622019 L35.7607126,13.9622019 L35.7607126,13.9622019 Z" id="d-2" fill="#FFFFFF"></path>
                            <path d="M31.8687693,10.044277 C31.7076587,11.5673132 31.4215939,13.1099552 31.1977252,14.6337455 L31.1390884,14.9647829 L32.4262866,14.9647829 C32.8865757,11.95566 32.9974797,11.3684268 33.7198543,11.4417602 C33.8346924,10.8258722 34.0486322,10.2865225 34.2082441,10.0146796 C33.6692731,9.9015689 33.3682212,10.208099 32.9736878,10.7906194 C33.0051605,10.5385709 33.0619239,10.2940632 33.0512456,10.044277 L31.8687693,10.044277" id="r-2" fill="#FFFFFF"></path>
                            <path d="M29.8342804,12.8303404 C29.6999592,12.8145049 29.6403858,12.810169 29.5478409,12.810169 C28.8185347,12.810169 28.4492919,13.0616519 28.4492919,13.5587736 C28.4492919,13.8647382 28.6295109,14.0606083 28.9105176,14.0606083 C29.4343142,14.0606083 29.8127366,13.5583966 29.8342804,12.8303404 L29.8342804,12.8303404 L29.8342804,12.8303404 Z M30.7709696,15.0222381 L29.70483,15.0222381 L29.7289966,14.5126742 C29.4035908,14.91516 28.9697164,15.1076367 28.3805389,15.1076367 C27.6825181,15.1076367 27.204994,14.5590496 27.204994,13.763127 C27.204994,12.5645301 28.0360246,11.8666368 29.4641009,11.8666368 C29.6100371,11.8666368 29.7966255,11.8800216 29.9878975,11.904906 C30.0278004,11.7420265 30.0384787,11.6728404 30.0384787,11.584614 C30.0384787,11.2592321 29.8149846,11.1380151 29.2134429,11.1380151 C28.5839878,11.1304744 28.0652493,11.2882639 27.8511222,11.3585811 C27.8647978,11.2771413 28.0296551,10.2521695 28.0296551,10.2521695 C28.6710999,10.0628975 29.093734,9.9914492 29.5697594,9.9914492 C30.6748653,9.9914492 31.2604833,10.4912102 31.259172,11.4345538 C31.2616074,11.6873563 31.2200184,12.0001075 31.1551995,12.4095684 C31.0435461,13.1216006 30.803941,14.6508578 30.7709696,15.0222381 L30.7709696,15.0222381 L30.7709696,15.0222381 Z" id="a-2" fill="#FFFFFF"></path>
                            <path d="M27.7713163,9.1746011 L27.5605612,10.4876283 C27.1010215,10.2551858 26.7681222,10.1611153 26.410869,10.1611153 C25.4500132,10.1611153 24.7761591,11.0955986 24.7761591,12.4284202 C24.7761591,13.3466909 25.2291419,13.9014992 25.9773692,13.9014992 C26.2941575,13.9014992 26.6442919,13.8029043 27.0702981,13.5911987 L26.8441814,14.9700187 C26.370404,15.100096 26.063732,15.147414 25.7070407,15.147414 C24.3213028,15.147414 23.4582374,14.1448758 23.4582374,12.5351213 C23.4582374,10.3720669 24.6513921,8.86034174 26.3567283,8.86034174 C26.9187418,8.86034174 27.5824797,9.099948 27.7713163,9.1746011" id="c-2" fill="#FFFFFF"></path>
                            <path d="M21.3786002,10.044277 C21.2167403,11.5673132 20.9303008,13.1099552 20.7068068,14.6337455 L20.64817,14.9647829 L21.9357429,14.9647829 C22.3964066,11.95566 22.506936,11.3684268 23.2281866,11.4417602 C23.343774,10.8258722 23.5582758,10.2865225 23.7173257,10.0146796 C23.1787294,9.9015689 22.8773028,10.208099 22.4835187,10.7906194 C22.5146168,10.5385709 22.5717548,10.2940632 22.5603272,10.044277 L21.3786002,10.044277" id="r-3" fill="#FFFFFF"></path>
                            <path d="M20.2054907,14.9085618 C19.7659962,15.0439177 19.3413013,15.1080138 18.8926272,15.1076367 C17.4602422,15.1066942 16.7140756,14.3535651 16.7140756,12.9125342 C16.7140756,11.2300119 17.6635037,9.9914492 18.9522007,9.9914492 C20.0078493,9.9914492 20.6811415,10.6848181 20.6811415,11.773132 C20.6811415,12.1337667 20.634307,12.4857297 20.5237777,12.9828514 L17.9761706,12.9828514 C17.8896205,13.6967687 18.3439147,13.994627 19.0878332,13.994627 C19.5454996,13.994627 19.9587668,13.8992369 20.4184938,13.6843265 L20.2054907,14.9085618 L20.2054907,14.9085618 Z M19.4864881,11.9904931 C19.4934196,11.8875623 19.6219334,11.1121882 18.8909412,11.1121882 C18.4836687,11.1121882 18.1923584,11.4253164 18.0735862,11.9904931 L19.4864881,11.9904931 L19.4864881,11.9904931 Z" id="e-2" fill="#FFFFFF"></path>
                            <path d="M16.2207988,15.0163941 C15.868791,15.1279967 15.5941538,15.1764458 15.296474,15.1764458 C14.6385435,15.1764458 14.2792295,14.7958281 14.2792295,14.0958611 C14.2702373,13.8775574 14.3742098,13.3065366 14.4558891,12.783965 C14.5300749,12.3237928 15.0139685,9.42589547 15.0139685,9.42589547 L16.2931112,9.42589547 L16.1436156,10.1705412 L16.8002347,10.1705412 L16.6254485,11.3529255 L15.9665814,11.3529255 C15.8180225,12.2894825 15.605956,13.4545232 15.6035207,13.6091079 C15.6035207,13.8636071 15.7384039,13.9737015 16.0445139,13.9737015 C16.1910121,13.9737015 16.3045388,13.9591856 16.3914636,13.9273261 L16.2207988,15.0163941" id="t-2" fill="#FFFFFF"></path>
                            <path d="M11.2063435,11.6571934 C11.2063435,12.2802451 11.5064587,12.7085578 12.1866823,13.031489 C12.7076688,13.2780704 12.7882241,13.3510269 12.7882241,13.5746091 C12.7882241,13.8813277 12.5585479,14.0196999 12.0491763,14.0196999 C11.6651338,14.0196999 11.3080679,13.9597512 10.8959247,13.826092 C10.8959247,13.826092 10.7273206,14.9102585 10.7192651,14.9615354 C11.0116995,15.0260085 11.272661,15.0848261 12.0583559,15.1076367 C13.4165552,15.1076367 14.0437622,14.5875158 14.0437622,13.4630065 C14.0437622,12.7866042 13.7811146,12.3899626 13.1364851,12.0921043 C12.5969522,11.842318 12.5349433,11.7870823 12.5349433,11.5570904 C12.5349433,11.2910917 12.7486958,11.1542277 13.1647731,11.1542277 C13.4171172,11.1542277 13.7623808,11.1825053 14.0894726,11.2288808 L14.272689,10.0877818 C13.939415,10.0348083 13.4343523,9.9914492 13.1398572,9.9914492 C11.700166,9.9914492 11.2020347,10.7481601 11.2063435,11.6571934" id="s-2" fill="#FFFFFF"></path>
                            <path d="M9.60273164,12.8303404 C9.46784841,12.8145049 9.40827498,12.810169 9.31554275,12.810169 C8.58604925,12.810169 8.21680639,13.0616519 8.21680639,13.5587736 C8.21680639,13.8647382 8.39702538,14.0606083 8.67821946,14.0606083 C9.20257804,14.0606083 9.58043844,13.5583966 9.60273164,12.8303404 L9.60273164,12.8303404 L9.60273164,12.8303404 Z M10.5386714,15.0222381 L9.47253185,15.0222381 L9.49688577,14.5126742 C9.1716673,14.91516 8.73760555,15.1076367 8.1480534,15.1076367 C7.45059467,15.1076367 6.97250853,14.5590496 6.97250853,13.763127 C6.97250853,12.5645301 7.80410115,11.8666368 9.23180274,11.8666368 C9.37792625,11.8666368 9.5648894,11.8800216 9.75634866,11.904906 C9.79625162,11.7420265 9.80674254,11.6728404 9.80674254,11.584614 C9.80674254,11.2592321 9.58249916,11.1380151 8.9815194,11.1380151 C8.35150229,11.1304744 7.8325765,11.2882639 7.61901138,11.3585811 C7.6324997,11.2771413 7.79754433,10.2521695 7.79754433,10.2521695 C8.43880171,10.0628975 8.86181053,9.9914492 9.33783595,9.9914492 C10.4429418,9.9914492 11.0281852,10.4912102 11.0270612,11.4345538 C11.0293092,11.6873563 10.9877202,12.0001075 10.9230887,12.4095684 C10.811248,13.1216006 10.5714556,14.6508578 10.5386714,15.0222381 L10.5386714,15.0222381 L10.5386714,15.0222381 Z" id="a-3" fill="#FFFFFF"></path>
                            <path d="M6.32563101,15.0991534 L5.03880746,15.0991534 L5.77616916,10.4480396 L4.13003166,15.0991534 L3.25291594,15.0991534 L3.14444734,10.4749976 L2.36961808,15.0991534 L1.16503584,15.0991534 L2.17122732,9.04885965 L4.02193773,9.04885965 L4.07345563,12.7943335 L5.3222496,9.04885965 L7.32095689,9.04885965 L6.32563101,15.0991534" id="m-2" fill="#FFFFFF"></path>
                        </g>
                    </g>
                    <g id="visa" transform="translate(0.000000, 93.000000)">
                        <g id="card" transform="translate(0.019430, 0.146561)" fill="#0066B2">
                            <rect id="Rectangle-path" x="0.0194295076" y="0.14656135" width="49.4318182" height="30.6818182" rx="5"></rect>
                        </g>
                        <g id="logo" transform="translate(2.986368, 8.382309)">
                            <g id="registered" transform="translate(41.829361, 11.658242)" fill="#FFFFFF">
                                <path d="M0.109951462,0.775244661 C0.109951462,0.390010848 0.422391175,0.0777974395 0.807562756,0.0777974395 C1.19341727,0.0777974395 1.50517405,0.390010848 1.50517405,0.775244661 C1.50517405,1.16013726 1.19341727,1.47269188 0.807562756,1.47269188 C0.422391175,1.47269188 0.109951462,1.16013726 0.109951462,0.775244661 L0.109951462,0.775244661 L0.109951462,0.775244661 Z M0.807562756,1.3048132 C1.10122194,1.3048132 1.33819807,1.06766749 1.33819807,0.775244661 C1.33819807,0.481798178 1.10122194,0.245334908 0.807562756,0.245334908 C0.515269429,0.245334908 0.277951832,0.481798178 0.277951832,0.775244661 C0.277951832,1.06766749 0.515269429,1.3048132 0.807562756,1.3048132 L0.807562756,1.3048132 L0.807562756,1.3048132 Z M0.71366011,1.08097495 L0.570928088,1.08097495 L0.570928088,0.468490721 L0.829757927,0.468490721 C0.883709265,0.468490721 0.938343532,0.469173155 0.986148515,0.499200237 C1.03566082,0.534004355 1.06366088,0.591670001 1.06366088,0.652406598 C1.06366088,0.72235605 1.02370957,0.78718725 0.958148454,0.811072429 L1.0701487,1.08097495 L0.911367863,1.08097495 L0.818489609,0.838369776 L0.71366011,0.838369776 L0.71366011,1.08097495 L0.71366011,1.08097495 Z M0.71366011,0.733616206 L0.792196868,0.733616206 C0.821904251,0.733616206 0.853660419,0.736345941 0.879611695,0.72235605 C0.903172723,0.707001293 0.915465433,0.678339078 0.915465433,0.651041731 C0.915465433,0.628521419 0.901123938,0.601224072 0.880977552,0.589281483 C0.855709204,0.574609159 0.81609936,0.57768011 0.789465155,0.57768011 L0.71366011,0.57768011 L0.71366011,0.733616206 L0.71366011,0.733616206 Z" id="Shape"></path>
                            </g>
                            <path d="M38.4956706,13.174579 L41.592144,13.174579 L38.8924991,0.305673419 L36.1818465,0.305673419 C34.9297176,0.305673419 34.6242532,1.26425214 34.6242532,1.26425214 L29.5953733,13.174579 L33.1101404,13.174579 L33.8129837,11.2634367 L38.1004932,11.2634367 L38.4956706,13.174579 L38.4956706,13.174579 Z M34.784966,8.62283389 L36.5566595,3.80588014 L37.5539596,8.62283389 L34.784966,8.62283389 L34.784966,8.62283389 Z" id="a" fill="#FFFFFF"></path>
                            <path d="M29.858458,3.40013832 L30.340046,0.636500644 C30.340046,0.636500644 28.8545533,0.0754614165 27.306867,0.0754614165 C25.6331422,0.0754614165 21.6588026,0.802187667 21.6588026,4.33575052 C21.6588026,7.66097424 26.323877,7.70253271 26.323877,9.44744126 C26.323877,11.1934435 22.1398402,10.881755 20.7583705,9.78045577 L20.257519,12.6693157 C20.257519,12.6693157 21.7628256,13.3965887 24.0645412,13.3965887 C26.365156,13.3965887 29.8380937,12.2121726 29.8380937,8.99084501 C29.8380937,5.64484205 25.1311899,5.33260677 25.1311899,3.87806062 C25.1311899,2.42296766 28.4158954,2.60998073 29.858458,3.40013832" id="s" fill="#FFFFFF"></path>
                            <path d="M18.1792602,13.174579 L14.8070432,13.174579 L16.9144725,0.305673419 L20.2877902,0.305673419 L18.1792602,13.174579" id="i" fill="#FFFFFF"></path>
                            <path d="M2.98226829,0.305673419 L5.63980865,0.305673419 C7.10273549,0.305673419 7.2392313,1.46438894 7.2392313,1.46438894 L8.3741279,7.25140467 L8.3741279,7.25085785 L8.75499523,9.15707885 L11.9698017,0.305673419 L15.5995995,0.305673419 L10.2338833,13.174579 L6.720217,13.174579 L3.79106099,1.99425932 C1.88837547,0.859057141 0.263084662,0.523308519 0.262534276,0.523308519 L0.32472793,0.305673419 L2.98226829,0.305673419 L5.63980865,0.305673419 C7.10273549,0.305673419 7.2392313,1.46438894 7.2392313,1.46438894 L8.3741279,7.25140467 C8.3741279,7.25140467 7.61129245,4.90389843 5.26829788,3.01955031 C2.81797797,1.04935115 0.263084662,0.523308519 0.262534276,0.523308519 L0.32472793,0.305673419 L2.98226829,0.305673419 L2.98226829,0.305673419 Z" id="v" fill="#FFFFFF"></path>
                            <path d="M8.3741279,7.25140467 L7.2392313,1.46438894 C7.2392313,1.46438894 7.10273549,0.305673419 5.63980865,0.305673419 L0.32472793,0.305673419 L0.262534276,0.523308519 C0.263084662,0.523308519 2.81797797,1.04935115 5.26829788,3.01955031 C7.61129245,4.90389843 8.3741279,7.25140467 8.3741279,7.25140467" id="shape" fill="#F9A533"></path>
                        </g>
                    </g>
                    <g id="Alipay" transform="translate(0.000000, 154.965909)">
                        <g id="card" fill="#F9F9F9">
                            <rect id="Rectangle-path" x="0.233826248" y="0.147398844" width="49.7142857" height="30.8571429" rx="5"></rect>
                        </g>
                        <g id="Alipay-Logo" transform="translate(0.428571, 7.285714)">
                            <path d="M22.1451441,7.43183558 C22.1497179,7.51630937 22.184022,7.60534931 22.250343,7.69667233 C22.389846,7.89758296 22.6231133,8.2560258 23.0347614,8.66697937 C23.4464095,9.07793294 23.8397622,9.34048661 24.018143,9.47518805 C24.1027596,9.53911417 24.1942369,9.57107722 24.2834274,9.57107722 C24.2834274,9.57107722 24.4183565,9.5824926 24.5532856,9.47518805 C24.7270925,9.33363738 25.1250191,9.07793294 25.5366672,8.66697937 C25.9483153,8.2560258 26.1815826,7.89758296 26.3210855,7.69667233 C26.3851197,7.60306623 26.4194237,7.51630937 26.4262845,7.43183558 L26.4285714,7.43183558 L26.4285714,7.42726943 L26.4262845,7.42498635 C26.4194237,7.34051256 26.3851197,7.25147262 26.3210855,7.16014961 C26.1815826,6.95923897 25.9483153,6.60079614 25.5366672,6.18984257 C25.1250191,5.778889 24.7316664,5.51405225 24.5532856,5.38391696 C24.4137826,5.28117856 24.2834274,5.28574471 24.2834274,5.28574471 C24.1942369,5.28574471 24.1027596,5.31999084 24.018143,5.38391696 C23.8397622,5.5186184 23.4464095,5.778889 23.0347614,6.18984257 C22.6231133,6.60079614 22.389846,6.95923897 22.250343,7.16014961 C22.184022,7.25147262 22.1497179,7.34051256 22.1451441,7.42498635 L22.1428571,7.42498635 L22.1428571,7.43183558 L22.1451441,7.43183558" id="Fill-1" fill="#C2422B"></path>
                            <path d="M40.1428571,10.2877964 C40.1473183,10.3501133 40.1718544,10.4146559 40.2209267,10.4814241 C40.3235324,10.6283141 40.4952854,10.8931612 40.7964108,11.193618 C41.0975362,11.4940748 41.3875089,11.6877025 41.5168813,11.7856292 C41.5793369,11.8323669 41.6462537,11.854623 41.7109399,11.8568486 C41.7109399,11.8568486 41.811315,11.865751 41.9094596,11.7856292 C42.0366014,11.6832513 42.3310352,11.4940748 42.6321606,11.193618 C42.933286,10.8931612 43.105039,10.6283141 43.2076447,10.4814241 C43.2544865,10.4146559 43.2790226,10.3501133 43.2834837,10.2877964 L43.2857143,10.2877964 L43.2857143,10.2833452 L43.2834837,10.2833452 C43.2790226,10.2210282 43.2544865,10.1564856 43.2076447,10.0897174 C43.105039,9.94060185 42.933286,9.67798035 42.6321606,9.37752355 C42.3310352,9.07706675 42.0410626,8.88121343 41.9094596,8.78551237 C41.8068539,8.71206738 41.7109399,8.71429298 41.7109399,8.71429298 C41.6462537,8.71429298 41.5793369,8.73877465 41.5168813,8.78551237 C41.3875089,8.88343903 41.0975362,9.07706675 40.7964108,9.37752355 C40.4952854,9.67798035 40.3235324,9.94060185 40.2209267,10.0897174 C40.1718544,10.1564856 40.1473183,10.2210282 40.1428571,10.2833452 L40.1428571,10.2877964" id="Fill-2" fill="#C2422B"></path>
                            <path d="M46.6041628,11.3155354 C38.0811449,13.062927 29.4537272,13.1703211 22.4545013,12.825765 C17.5010664,12.5818909 13.5472035,11.1880049 10.6373381,9.8657149 C9.43340904,9.31979486 8.26946288,8.99537516 7.1610485,8.67990497 C4.34891905,7.88116129 1.15473093,9.0110368 1.00590576,11.7160259 C0.808212611,15.3540013 5.63947767,15.2085718 5.63947767,15.2085718 C1.93439716,14.984834 1.82111232,12.7698306 1.84776758,12.214961 C1.86775902,11.7965715 1.89663554,11.1454947 2.55191057,10.5033674 C3.20718561,9.86124015 4.35336159,9.58604275 5.20188723,9.58604275 C9.35788581,9.58604275 11.905684,13.3828719 19.2447643,14.8931016 C28.6029803,16.817246 41.6596129,15.2891173 43.1323158,15.1571121 C44.6050187,15.0251068 44.6849844,14.4411514 45.2114257,13.8325848 C45.737867,13.2240181 46.9462386,12.2686581 47.4193694,11.68694 C47.8947214,11.1029845 47.1528168,11.2036665 46.6041628,11.3155354" id="Fill-3" fill="#C2422B"></path>
                            <path d="M11.891022,1.00093576 L11.4009034,1.00093576 C10.160926,0.994254868 9.62789385,1.01429754 9.40429136,1.36838467 L9.40429136,2.98070594 L4.42857143,2.98070594 L4.42857143,3.79800139 L9.40429136,3.79800139 L9.40429136,5.74882105 L5.81987578,5.74882105 L5.81987578,6.5661165 L13.3613778,6.5661165 C13.2981366,7.46580959 12.5437606,8.85988848 11.4573687,10.2094281 C12.0920384,10.4788906 12.7696217,10.7438992 13.4923772,11 C15.055336,8.9912793 15.8932806,6.80217459 15.9565217,5.74882105 L11.891022,5.74882105 L11.891022,3.79800139 L17,3.79800139 L17,2.98070594 L11.891022,2.98070594 L11.891022,1.00093576" id="Fill-4" fill="#1F264E"></path>
                            <path d="M22.123297,1.00094595 C20.8818475,0.994192265 20.3481825,1.01445333 20.1243145,1.37239885 L20.1243145,1.42417713 C20.1243145,1.60652673 20.0157725,2.61057515 18.6951778,3.93429819 C17.4808638,5.15221343 16.7142857,5.61371551 16.7142857,5.61371551 C16.7142857,5.61371551 16.7843858,5.77580405 16.8657923,5.89962168 C16.9471988,6.02118808 17.0625247,6.12024218 17.0625247,6.12024218 C17.0625247,6.12024218 17.8494545,5.863602 18.8218102,5.3548241 L18.8218102,12.6735717 C19.6223076,12.8108967 20.4522019,12.9234582 21.311493,13 L21.311493,3.5178207 C21.9446549,2.81993951 22.3991746,1.98023085 22.4285714,1.00094595 L22.123297,1.00094595" id="Fill-5" fill="#1F264E"></path>
                            <path d="M43.085998,2.01794673 C42.6386109,2.01794673 40.9055507,2.07298037 39.0459568,2.1368194 L39.0459568,1.00092499 L38.553379,1.00092499 C37.3128966,0.994320955 36.7819068,1.01413307 36.5559537,1.36414704 L36.5559537,2.22487323 C35.4194097,2.2666988 34.4500709,2.30192033 33.9710504,2.3195311 L33.9710504,1.8528458 L33.5665944,1.8528458 C32.3283714,1.84404041 31.7951221,1.86605387 31.5714286,2.21606785 L31.5714286,5.36179092 L36.5559537,5.36179092 L36.5559537,7.52791513 L33.1237263,7.52791513 L33.1237263,8.33580902 L36.5559537,8.33580902 L36.5559537,12.7142857 C37.3964992,12.6548494 38.2257471,12.5844063 39.0459568,12.5051579 L39.0459568,8.33580902 L42.7041373,8.33580902 L42.7041373,7.52791513 L39.0459568,7.52791513 L39.0459568,5.36179092 L43.3639203,5.36179092 L43.3639203,4.95454195 C43.5717972,4.94793792 43.8836124,4.88409889 43.9785127,4.38219206 C44.0847107,3.80764082 44.1208632,3.44441877 44.1389394,3.18245863 C44.1570157,2.92269983 44.1570157,2.01794673 43.085998,2.01794673 L43.085998,2.01794673 L43.085998,2.01794673 Z M41.9810874,3.39158647 C41.953973,3.65134527 41.8568132,4.26331939 41.8093631,4.55389703 L33.9710504,4.55389703 L33.9710504,3.16264652 C34.786741,3.13182768 41.0456416,2.90508906 41.4636548,2.90508906 C41.9087824,2.90508906 42.0149804,3.04377385 41.9810874,3.39158647 L41.9810874,3.39158647 L41.9810874,3.39158647 Z" id="Fill-6" fill="#1F264E"></path>
                            <path d="M29.0441981,1.00094872 L28.5542737,1.00094872 C27.3204734,0.994175279 26.792344,1.0144956 26.5698554,1.37348802 L26.5698554,3.87966147 L21.8571429,3.87966147 L21.8571429,4.710537 L26.5698554,4.710537 L26.5698554,13.2586205 C27.3339576,13.2744252 28.0958124,13.2857143 28.8464304,13.2857143 C28.9116039,13.2857143 28.9790246,13.2834565 29.0441981,13.2834565 L29.0441981,4.710537 L30.4285714,4.710537 L30.4285714,3.87966147 L29.0441981,3.87966147 L29.0441981,1.00094872" id="Fill-7" fill="#1F264E"></path>
                            <path d="M5.60353804,13.9404475 C4.12644471,13.9404475 2.59489632,13.2449799 2.59489632,11.5401033 C2.59489632,10.2930579 3.88820385,9.76546185 4.58477474,9.57142857 C3.86097632,9.67825588 3.08045389,9.94641423 2.5790136,10.4129662 C1.90967023,11.038669 1.88017375,11.6730924 1.8597531,12.0807803 C1.83252557,12.6214573 1.94824256,14.7798049 5.73286879,14.9978199 L5.69429646,14.9978199 C5.75782736,15 5.79186177,15 5.79186177,15 C8.53957301,15 10.7608854,13.7616753 12.4285714,12.1636259 C11.7660349,11.8322433 11.1511466,11.5030407 10.5612169,11.1978199 C9.04328226,12.7130235 7.18273459,13.9404475 5.60353804,13.9404475" id="Fill-8" fill="#1F264E"></path>
                            <path d="M44.7142857,1.12571429 L45.0868571,1.12571429 L45.0868571,2.11314286 L45.2354286,2.11314286 L45.2354286,1.12571429 L45.6057143,1.12571429 L45.6057143,1 L44.7142857,1 L44.7142857,1.12571429" id="Fill-9" fill="#1F264E"></path>
                            <path d="M46.4765714,1 L46.1245714,1.93485714 L45.7748571,1 L45.5714286,1 L45.5714286,2.11314286 L45.7131429,2.11314286 L45.7131429,1.18742857 L45.7154286,1.18742857 L46.0628571,2.11314286 L46.1885714,2.11314286 L46.536,1.18742857 L46.5405714,1.18742857 L46.5405714,2.11314286 L46.68,2.11314286 L46.68,1 L46.4765714,1" id="Fill-10" fill="#1F264E"></path>
                        </g>
                    </g>
                </g>
            </g>
            <g id="Ideal" transform="translate(0.000000, 187.000000)" sketch:type="MSShapeGroup">
                <g id="card" transform="translate(0.084871, 0.000000)" fill="#F9F9F9">
                    <rect x="0.0184719233" y="0.127747422" width="49.9815281" height="28.4424107" rx="5"></rect>
                </g>
                <g id="iDeal" transform="translate(14.987248, 5.521739)">
                    <path d="M2.52565104,10.4175889 L5.58328993,10.4175889 L5.58328993,16.0559289 L2.52565104,16.0559289 L2.52565104,10.4175889 Z" id="Fill-124" fill="#0B0B0A"></path>
                    <path d="M5.81399016,7.59841897 C5.81399016,8.66027668 5.03925058,9.52114625 4.08373843,9.52114625 C3.12822627,9.52114625 2.35348669,8.66027668 2.35348669,7.59841897 C2.35348669,6.53833992 3.12822627,5.67747036 4.08373843,5.67747036 C5.03925058,5.67747036 5.81399016,6.53833992 5.81399016,7.59841897" id="Fill-125" fill="#0B0B0A"></path>
                    <path d="M11.3731771,0.0195652174 L0.40630787,0.0195652174 L0.40630787,18.4926877 L11.3731771,18.4926877 L11.3731771,18.4909091 C13.7697049,18.4535573 15.666956,17.7936759 17.0150029,16.5201581 C18.6522859,14.9727273 19.4838397,12.5288538 19.4838397,9.25612648 C19.4838397,7.69268775 19.265191,6.28932806 18.8330584,5.08695652 C18.4215856,3.93616601 17.8121238,2.95790514 17.0236111,2.17885375 C15.6342448,0.807509881 13.6836227,0.0658102767 11.3731771,0.0231225296 L11.3731771,0.0195652174 L11.3731771,0.0195652174 Z M11.1665799,1.24683794 C13.2928096,1.24683794 15.0643808,1.88537549 16.290191,3.09664032 C17.676114,4.46442688 18.3785446,6.53656126 18.3785446,9.25612648 C18.3785446,14.6472332 16.0198929,17.2671937 11.1665799,17.2671937 L1.50988137,17.2671937 L1.50988137,1.24683794 L11.1665799,1.24683794 L11.1665799,1.24683794 Z" id="Fill-126" fill="#0B0B0A"></path>
                    <path d="M10.8652922,16.0630435 L6.9864294,16.0630435 L6.9864294,2.73913043 L10.8652922,2.73913043 L10.7086227,2.73913043 C13.9418692,2.73913043 17.3834346,4.15671937 17.3834346,9.41798419 C17.3834346,14.9798419 13.9418692,16.0630435 10.7086227,16.0630435 L10.8652922,16.0630435" id="Fill-127" fill="#BB205E"></path>
                    <path d="M6.31843171,6.17905138 L7.38240741,6.17905138 C7.6234375,6.17905138 7.80593171,6.1986166 7.93161169,6.23952569 C8.1020544,6.29466403 8.24667245,6.39426877 8.3671875,6.53478261 C8.48770255,6.6770751 8.57894965,6.84960474 8.64265046,7.0541502 C8.70635127,7.25869565 8.73734086,7.51126482 8.73734086,7.81185771 C8.73734086,8.07687747 8.70807292,8.3027668 8.64953704,8.49486166 C8.57550637,8.72786561 8.4739294,8.91640316 8.3396412,9.06047431 C8.23806424,9.17075099 8.1020544,9.25612648 7.92989005,9.31660079 C7.80248843,9.36106719 7.63032407,9.38418972 7.41511863,9.38418972 L6.31843171,9.38418972 L6.31843171,6.17905138 L6.31843171,6.17905138 Z M6.90034722,6.7215415 L6.90034722,8.8416996 L7.33592303,8.8416996 C7.49947917,8.8416996 7.61655093,8.83102767 7.68885995,8.80968379 C7.78355035,8.78478261 7.86274595,8.74031621 7.92472512,8.67806324 C7.98842593,8.61581028 8.03835359,8.51264822 8.07795139,8.36857708 C8.11754919,8.22450593 8.13820891,8.03063241 8.13820891,7.78339921 C8.13820891,7.53616601 8.11754919,7.3458498 8.07795139,7.21245059 C8.03835359,7.08083004 7.983261,6.97766798 7.91267361,6.90296443 C7.84208623,6.83003953 7.75083912,6.7784585 7.64237558,6.75355731 C7.56145833,6.73221344 7.40134549,6.7215415 7.16375868,6.7215415 L6.90034722,6.7215415 L6.90034722,6.7215415 Z" id="Fill-128" fill="#FFFFFF"></path>
                    <path d="M6.23923611,6.09189723 L6.23923611,9.47134387 L7.41511863,9.47134387 C7.63721065,9.47134387 7.81798322,9.44822134 7.95399306,9.40019763 C8.13648727,9.33438735 8.28454861,9.24189723 8.3947338,9.12450593 C8.53763021,8.96976285 8.64781539,8.7687747 8.72356771,8.52332016 C8.78554688,8.32411067 8.81653646,8.08399209 8.81653646,7.81185771 C8.81653646,7.5041502 8.78210359,7.23913043 8.71668113,7.0256917 C8.65125868,6.81047431 8.553125,6.62549407 8.42400174,6.4743083 C8.29487847,6.32312253 8.13648727,6.21640316 7.95399306,6.15592885 C7.81970486,6.11324111 7.63376736,6.09189723 7.38240741,6.09189723 L6.23923611,6.09189723 L6.23923611,6.09189723 Z M7.38240741,6.26620553 C7.61482928,6.26620553 7.79215856,6.28577075 7.90923032,6.32490119 C8.06417824,6.37470356 8.20018808,6.46541502 8.31037326,6.59525692 C8.42228009,6.72687747 8.50836227,6.89051383 8.56861979,7.0826087 C8.62715567,7.27826087 8.65814525,7.52371542 8.65814525,7.81185771 C8.65814525,8.06442688 8.63059896,8.28498024 8.57378472,8.46640316 C8.50664063,8.68517787 8.40850694,8.86304348 8.28454861,8.99822134 C8.1933015,9.09782609 8.06589988,9.17608696 7.90578704,9.23300395 C7.78699363,9.2756917 7.61999421,9.29703557 7.41511863,9.29703557 L6.39762731,9.29703557 L6.39762731,6.26620553 L7.38240741,6.26620553 L7.38240741,6.26620553 Z" id="Fill-129" fill="#FFFFFF"></path>
                    <path d="M6.82115162,6.63438735 L6.82115162,8.92885375 L7.33592303,8.92885375 C7.50808738,8.92885375 7.63032407,8.91818182 7.70951968,8.89505929 C7.81626157,8.86660079 7.90578704,8.81501976 7.97809606,8.74209486 C8.05212674,8.66916996 8.10894097,8.55355731 8.1537037,8.39347826 C8.19674479,8.24051383 8.21568287,8.04130435 8.21568287,7.78339921 C8.21568287,7.52371542 8.19502315,7.32806324 8.1537037,7.18577075 C8.10894097,7.03992095 8.04696181,6.92252964 7.96604456,6.83893281 C7.88512731,6.75533597 7.7818287,6.69664032 7.65959201,6.66640316 C7.57178819,6.64505929 7.40823206,6.63438735 7.16375868,6.63438735 L6.82115162,6.63438735 L6.82115162,6.63438735 Z M7.16375868,6.81047431 C7.45127315,6.81047431 7.57350984,6.82470356 7.62515914,6.83893281 C7.71984954,6.86205534 7.79904514,6.90474308 7.85758102,6.96699605 C7.91956019,7.03102767 7.9677662,7.12351779 8.00392072,7.24090909 C8.04007523,7.36363636 8.05901331,7.54505929 8.05901331,7.78339921 C8.05901331,8.01996047 8.04007523,8.20849802 8.00219907,8.34367589 C7.9677662,8.46996047 7.92300347,8.56067194 7.87307581,8.61225296 C7.81970486,8.66561265 7.75256076,8.70296443 7.66992187,8.72608696 C7.60449942,8.74387352 7.49259259,8.7527668 7.33592303,8.7527668 L6.97954282,8.7527668 L6.97954282,6.81047431 L7.16375868,6.81047431 L7.16375868,6.81047431 Z" id="Fill-130" fill="#FFFFFF"></path>
                    <path d="M9.39500868,9.38418972 L9.39500868,6.17905138 L11.5315683,6.17905138 L11.5315683,6.7215415 L9.97692419,6.7215415 L9.97692419,7.43300395 L11.4231047,7.43300395 L11.4231047,7.97549407 L9.97692419,7.97549407 L9.97692419,8.8416996 L11.5866609,8.8416996 L11.5866609,9.38418972 L9.39500868,9.38418972" id="Fill-131" fill="#FFFFFF"></path>
                    <path d="M9.31753472,6.09189723 L9.31753472,9.47134387 L11.6658565,9.47134387 L11.6658565,8.7527668 L10.0561198,8.7527668 L10.0561198,8.06264822 L11.5023003,8.06264822 L11.5023003,7.34407115 L10.0561198,7.34407115 L10.0561198,6.81047431 L11.6107639,6.81047431 L11.6107639,6.09189723 L9.31753472,6.09189723 L9.31753472,6.09189723 Z M11.4540943,6.26620553 L11.4540943,6.63438735 L9.89945023,6.63438735 L9.89945023,7.5201581 L11.3439091,7.5201581 L11.3439091,7.88833992 L9.89945023,7.88833992 L9.89945023,8.92885375 L11.5091869,8.92885375 L11.5091869,9.29703557 L9.47420428,9.29703557 L9.47420428,6.26620553 L11.4540943,6.26620553 L11.4540943,6.26620553 Z" id="Fill-132" fill="#FFFFFF"></path>
                    <path d="M14.8457321,9.38418972 L14.2121672,9.38418972 L13.9608073,8.65671937 L12.8073061,8.65671937 L12.5679977,9.38418972 L11.9499277,9.38418972 L13.0724392,6.17905138 L13.6922309,6.17905138 L14.8457321,9.38418972 L14.8457321,9.38418972 Z M13.7731481,8.11422925 L13.3754485,6.92608696 L12.9863571,8.11422925 L13.7731481,8.11422925 L13.7731481,8.11422925 Z" id="Fill-133" fill="#FFFFFF"></path>
                    <path d="M13.0173466,6.09189723 L11.8345775,9.47134387 L12.6230903,9.47134387 C12.6230903,9.47312253 12.8314091,8.8416996 12.8623987,8.74387352 L13.9057147,8.74387352 C13.9401476,8.83992095 14.1587963,9.47134387 14.1587963,9.47134387 L14.9628038,9.47134387 L13.7456019,6.09189723 L13.0173466,6.09189723 L13.0173466,6.09189723 Z M13.63886,6.26620553 C13.6750145,6.36936759 14.6511863,9.07826087 14.7303819,9.29703557 L14.2672598,9.29703557 C14.232827,9.20098814 14.0141782,8.56956522 14.0141782,8.56956522 L12.7522135,8.56956522 C12.7522135,8.56956522 12.5456163,9.19920949 12.5129051,9.29703557 L12.0652778,9.29703557 C12.1427517,9.08003953 13.0896557,6.37114625 13.1258102,6.26620553 L13.63886,6.26620553 L13.63886,6.26620553 Z" id="Fill-134" fill="#FFFFFF"></path>
                    <path d="M12.8727286,8.2013834 L13.8867766,8.2013834 L13.3754485,6.67173913 L12.8727286,8.2013834 L12.8727286,8.2013834 Z M13.3771701,7.18043478 C13.4632523,7.43833992 13.609592,7.87411067 13.6595197,8.02529644 L13.0982639,8.02529644 C13.1481916,7.87411067 13.291088,7.43833992 13.3771701,7.18043478 L13.3771701,7.18043478 Z" id="Fill-135" fill="#FFFFFF"></path>
                    <path d="M15.3329572,9.38418972 L15.3329572,6.20573123 L15.9148727,6.20573123 L15.9148727,8.8416996 L17.3644965,8.8416996 L17.3644965,9.38418972 L15.3329572,9.38418972" id="Fill-136" fill="#FFFFFF"></path>
                    <path d="M15.2537616,6.11679842 L15.2537616,9.47134387 L17.4436921,9.47134387 L17.4436921,8.7527668 L15.9940683,8.7527668 L15.9940683,6.11679842 L15.2537616,6.11679842 L15.2537616,6.11679842 Z M15.8356771,6.29288538 L15.8356771,8.92885375 L17.2870226,8.92885375 L17.2870226,9.29703557 L15.4121528,9.29703557 L15.4121528,6.29288538 L15.8356771,6.29288538 L15.8356771,6.29288538 Z" id="Fill-137" fill="#FFFFFF"></path>
                </g>
            </g>
        </g>
    </g>
</svg>